<svg width="48" height="48" viewBox="0 0 48 48" fill="none" xmlns="http://www.w3.org/2000/svg">
<path fill-rule="evenodd" clip-rule="evenodd" d="M17.1667 24C17.1667 23.4477 17.6144 23 18.1667 23H29.8334C30.3856 23 30.8334 23.4477 30.8334 24C30.8334 24.5523 30.3856 25 29.8334 25H18.1667C17.6144 25 17.1667 24.5523 17.1667 24Z" fill="#475467"/>
<path fill-rule="evenodd" clip-rule="evenodd" d="M24.7071 17.4595C25.0977 17.85 25.0977 18.4832 24.7071 18.8737L19.5809 24L24.7071 29.1262C25.0977 29.5167 25.0977 30.1499 24.7071 30.5404C24.3166 30.9309 23.6834 30.9309 23.2929 30.5404L17.4596 24.7071C17.0691 24.3165 17.0691 23.6834 17.4596 23.2929L23.2929 17.4595C23.6834 17.069 24.3166 17.069 24.7071 17.4595Z" fill="#475467"/>
</svg>
