<svg width="84" height="24" viewBox="0 0 84 24" fill="none" xmlns="http://www.w3.org/2000/svg">
<path d="M41.8281 17.8438H28.7266V16.0469H41.8281V17.8438ZM36.3125 16.5H34.0781V12.8906H36.3125V16.5ZM35.9531 6.92969C35.9531 7.96094 35.7214 8.92969 35.2578 9.83594C34.7995 10.737 34.1146 11.5078 33.2031 12.1484C32.2969 12.7839 31.2005 13.2161 29.9141 13.4453L28.9609 11.5703C30.0703 11.3984 31.0026 11.0703 31.7578 10.5859C32.513 10.1016 33.0729 9.54167 33.4375 8.90625C33.8021 8.26562 33.9844 7.60677 33.9844 6.92969V5.9375H35.9531V6.92969ZM36.3828 6.92969C36.3828 7.61719 36.5651 8.28125 36.9297 8.92188C37.2995 9.55729 37.862 10.1146 38.6172 10.5938C39.3724 11.0729 40.3125 11.3984 41.4375 11.5703L40.4922 13.4453C39.1901 13.2109 38.0833 12.7812 37.1719 12.1562C36.2656 11.526 35.5807 10.763 35.1172 9.86719C34.6589 8.96615 34.4297 7.98698 34.4297 6.92969V5.9375H36.3828V6.92969ZM55.625 14.2344H42.5156V12.4766H55.625V14.2344ZM50.1875 13.1094H47.9297V11.0078H50.1875V13.1094ZM54.2578 11.7734H44.125V10.0625H54.2578V11.7734ZM54.1328 7.20312H46.375V11.0391H44.125V5.48438H54.1328V7.20312ZM53.8047 9.4375H45.7344V7.82812H53.8047V9.4375ZM49.0625 14.75C50.1146 14.7396 51.013 14.8281 51.7578 15.0156C52.5078 15.2031 53.0807 15.4766 53.4766 15.8359C53.8724 16.1901 54.0703 16.6198 54.0703 17.125C54.0703 17.6354 53.8724 18.0703 53.4766 18.4297C53.0807 18.7891 52.5104 19.0573 51.7656 19.2344C51.026 19.4167 50.125 19.5078 49.0625 19.5078C47.9948 19.5078 47.0833 19.4167 46.3281 19.2344C45.5729 19.0573 44.9974 18.7891 44.6016 18.4297C44.2109 18.0703 44.0156 17.6354 44.0156 17.125C44.0156 16.6198 44.2135 16.1901 44.6094 15.8359C45.0052 15.4766 45.5807 15.2031 46.3359 15.0156C47.0911 14.8281 48 14.7396 49.0625 14.75ZM49.0625 16.4062C48.3906 16.4062 47.8516 16.4297 47.4453 16.4766C47.0443 16.5234 46.7474 16.599 46.5547 16.7031C46.362 16.8021 46.2656 16.9427 46.2656 17.125C46.2656 17.2917 46.362 17.4297 46.5547 17.5391C46.7474 17.6484 47.0495 17.7292 47.4609 17.7812C47.8724 17.8333 48.4062 17.8594 49.0625 17.8594C49.7031 17.8594 50.224 17.8333 50.625 17.7812C51.026 17.7292 51.3229 17.6484 51.5156 17.5391C51.7083 17.4297 51.8047 17.2917 51.8047 17.125C51.8047 16.9427 51.7109 16.8021 51.5234 16.7031C51.3359 16.599 51.0417 16.5234 50.6406 16.4766C50.2448 16.4297 49.7188 16.4062 49.0625 16.4062ZM63.2031 9.03125H56.3516V7.25H63.2031V9.03125ZM59.8125 9.57812C60.4271 9.57812 60.974 9.72396 61.4531 10.0156C61.9375 10.3073 62.3125 10.7135 62.5781 11.2344C62.849 11.7552 62.9844 12.349 62.9844 13.0156C62.9844 13.6875 62.849 14.2865 62.5781 14.8125C62.3125 15.3385 61.9375 15.75 61.4531 16.0469C60.974 16.3385 60.4271 16.4844 59.8125 16.4844C59.2083 16.4844 58.6667 16.3385 58.1875 16.0469C57.7083 15.75 57.3307 15.3385 57.0547 14.8125C56.7786 14.2812 56.6406 13.6823 56.6406 13.0156C56.6406 12.3594 56.7786 11.7682 57.0547 11.2422C57.3307 10.7161 57.7083 10.3073 58.1875 10.0156C58.6667 9.72396 59.2083 9.57812 59.8125 9.57812ZM59.8125 11.4375C59.5781 11.4271 59.3698 11.4844 59.1875 11.6094C59.0052 11.7344 58.8646 11.9167 58.7656 12.1562C58.6667 12.3958 58.6172 12.6823 58.6172 13.0156C58.6172 13.3542 58.6667 13.6406 58.7656 13.875C58.8698 14.1094 59.0104 14.2865 59.1875 14.4062C59.3698 14.526 59.5781 14.5859 59.8125 14.5859C60.0521 14.5859 60.2604 14.526 60.4375 14.4062C60.6146 14.2865 60.7552 14.1094 60.8594 13.875C60.9635 13.6406 61.0156 13.3542 61.0156 13.0156C61.0156 12.6823 60.9635 12.3958 60.8594 12.1562C60.7552 11.9167 60.6146 11.7344 60.4375 11.6094C60.2604 11.4844 60.0521 11.4271 59.8125 11.4375ZM68.8281 19.4922H66.6875V5.14844H68.8281V19.4922ZM67.3984 12.7109H65.0938V10.9297H67.3984V12.7109ZM65.7734 18.9062H63.6641V5.42188H65.7734V18.9062ZM60.9141 8.375H58.7031V5.54688H60.9141V8.375ZM75.2578 16.3594H73.0312V12.4141H75.2578V16.3594ZM80.5078 16.3594H78.2344V12.4141H80.5078V16.3594ZM83.3125 17.875H70.2109V16.0391H83.3125V17.875ZM76.7422 5.78906C77.7786 5.78906 78.7083 5.95312 79.5312 6.28125C80.3594 6.60417 81.0078 7.0625 81.4766 7.65625C81.9505 8.24479 82.1875 8.92188 82.1875 9.6875C82.1875 10.4583 81.9531 11.138 81.4844 11.7266C81.0156 12.3151 80.3698 12.7708 79.5469 13.0938C78.724 13.4115 77.7891 13.5729 76.7422 13.5781C75.7005 13.5729 74.7682 13.4115 73.9453 13.0938C73.1224 12.7708 72.4766 12.3151 72.0078 11.7266C71.5443 11.138 71.3125 10.4583 71.3125 9.6875C71.3125 8.92188 71.5443 8.24479 72.0078 7.65625C72.4766 7.0625 73.1224 6.60417 73.9453 6.28125C74.7734 5.95312 75.7057 5.78906 76.7422 5.78906ZM76.7422 7.5625C76.0859 7.55729 75.5182 7.63802 75.0391 7.80469C74.5599 7.96615 74.1901 8.20573 73.9297 8.52344C73.6693 8.84115 73.5391 9.22917 73.5391 9.6875C73.5391 10.1354 73.6693 10.5208 73.9297 10.8438C74.1901 11.1667 74.5625 11.4141 75.0469 11.5859C75.5312 11.7578 76.0964 11.8438 76.7422 11.8438C77.3828 11.8438 77.9427 11.7578 78.4219 11.5859C78.9062 11.4141 79.2812 11.1667 79.5469 10.8438C79.8125 10.5208 79.9453 10.1354 79.9453 9.6875C79.9453 9.22917 79.8151 8.84375 79.5547 8.53125C79.2943 8.21354 78.9219 7.97135 78.4375 7.80469C77.9531 7.63802 77.388 7.55729 76.7422 7.5625Z" fill="#4E5BA6"/>
<path d="M6.80078 22.5723C6.99609 22.5723 7.1735 22.5218 7.33301 22.4209C7.49252 22.32 7.68946 22.1621 7.92383 21.9473L11.4492 18.7246L18.0508 18.7344C19.0209 18.7344 19.8379 18.5602 20.502 18.2119C21.166 17.8636 21.6689 17.3575 22.0107 16.6934C22.3525 16.0293 22.5234 15.2188 22.5234 14.2617V6.78125C22.5234 5.82422 22.3525 5.01367 22.0107 4.34961C21.6689 3.68555 21.166 3.17937 20.502 2.83105C19.8379 2.48275 19.0209 2.30859 18.0508 2.30859H5.47266C4.50261 2.30859 3.68555 2.48275 3.02148 2.83105C2.35742 3.17937 1.85449 3.68555 1.5127 4.34961C1.1709 5.01367 1 5.82422 1 6.78125V14.2617C1 15.2188 1.1709 16.0293 1.5127 16.6934C1.85449 17.3575 2.35742 17.862 3.02148 18.207C3.68555 18.5521 4.50261 18.7246 5.47266 18.7246H5.93164V21.5664C5.93164 21.8724 6.00651 22.1165 6.15625 22.2988C6.30599 22.4811 6.52083 22.5723 6.80078 22.5723ZM5.9707 10.2773C5.23503 10.2773 4.86719 9.91602 4.86719 9.19336V7.19141C4.86719 6.47527 5.23503 6.11719 5.9707 6.11719H10.3848C11.1205 6.11719 11.4883 6.47527 11.4883 7.19141V9.19336C11.4883 9.91602 11.1205 10.2773 10.3848 10.2773H5.9707ZM7.19141 14.9062C6.46224 14.9062 6.09766 14.5449 6.09766 13.8223V12.4648C6.09766 11.7357 6.46224 11.3711 7.19141 11.3711H10.9902C11.7129 11.3711 12.0742 11.7357 12.0742 12.4648V13.8223C12.0742 14.5449 11.7129 14.9062 10.9902 14.9062H7.19141ZM14.291 14.3105C13.5619 14.3105 13.1973 13.9459 13.1973 13.2168V7.88477C13.1973 7.15561 13.5619 6.79102 14.291 6.79102H17.4355C18.1647 6.79102 18.5293 7.15561 18.5293 7.88477V13.2168C18.5293 13.9459 18.1647 14.3105 17.4355 14.3105H14.291Z" fill="#4E5BA6"/>
</svg>
