<svg width="146" height="24" viewBox="0 0 146 24" fill="none" xmlns="http://www.w3.org/2000/svg">
<path d="M39.1797 8.89844H34.9609V7.10156H39.1797V8.89844ZM39.1797 12.375H34.9609V10.5859H39.1797V12.375ZM40.6094 15.6172H38.375V5.17969H40.6094V15.6172ZM40.9375 19.2734H31V17.4688H40.9375V19.2734ZM33.25 18.4219H31V14.5781H33.25V18.4219ZM32.4844 5.98438C33.1875 5.98438 33.8255 6.14844 34.3984 6.47656C34.9766 6.79948 35.4375 7.2474 35.7812 7.82031C36.1302 8.39323 36.3047 9.03646 36.3047 9.75C36.3047 10.4479 36.1302 11.0833 35.7812 11.6562C35.4375 12.224 34.974 12.6719 34.3906 13C33.8125 13.3281 33.1771 13.4922 32.4844 13.4922C31.7656 13.4922 31.112 13.3281 30.5234 13C29.9401 12.6719 29.4792 12.224 29.1406 11.6562C28.8073 11.0833 28.6406 10.4479 28.6406 9.75C28.6406 9.03646 28.8073 8.39323 29.1406 7.82031C29.4792 7.24219 29.9401 6.79167 30.5234 6.46875C31.112 6.14583 31.7656 5.98438 32.4844 5.98438ZM32.4844 7.98438C32.151 7.97396 31.8542 8.03906 31.5938 8.17969C31.3333 8.3151 31.1302 8.51823 30.9844 8.78906C30.8385 9.0599 30.7656 9.38021 30.7656 9.75C30.7656 10.1146 30.8385 10.4271 30.9844 10.6875C31.1302 10.9479 31.3333 11.1458 31.5938 11.2812C31.8542 11.4167 32.151 11.4896 32.4844 11.5C32.7969 11.4896 33.0807 11.4167 33.3359 11.2812C33.5964 11.1458 33.7969 10.9479 33.9375 10.6875C34.0833 10.4219 34.1562 10.1094 34.1562 9.75C34.1562 9.38021 34.0833 9.0599 33.9375 8.78906C33.7969 8.51823 33.5964 8.3151 33.3359 8.17969C33.0807 8.03906 32.7969 7.97396 32.4844 7.98438ZM52.8438 7.74219H43.75V5.97656H52.8438V7.74219ZM55.375 13.8516H42.3047V12.0469H55.375V13.8516ZM49.8906 19.5078H47.6328V13.3203H49.8906V19.5078ZM53.9062 7.26562C53.9062 8 53.8958 8.61979 53.875 9.125C53.8542 9.63021 53.7995 10.224 53.7109 10.9062C53.6276 11.5885 53.5 12.3255 53.3281 13.1172L51.1094 12.875C51.2812 12.125 51.4089 11.4245 51.4922 10.7734C51.5755 10.1172 51.625 9.53646 51.6406 9.03125C51.6562 8.52604 51.6641 7.9375 51.6641 7.26562V5.97656H53.9062V7.26562ZM62.0547 15.6875H59.7969V12.5391H62.0547V15.6875ZM68.3672 15.9844H66.1172V5.17969H68.3672V15.9844ZM68.6719 19.2734H57.8203V17.4688H68.6719V19.2734ZM60.0781 17.9375H57.8203V14.9531H60.0781V17.9375ZM56.0781 11.4375C58.0417 11.4115 59.7292 11.375 61.1406 11.3281C62.5573 11.276 63.9245 11.1667 65.2422 11L65.3594 12.6094C63.974 12.8438 62.5234 13.0026 61.0078 13.0859C59.4974 13.1693 57.9401 13.2083 56.3359 13.2031L56.0781 11.4375ZM66.6094 14.9609H63.4453V13.4453H66.6094V14.9609ZM60.7266 5.63281C61.4089 5.6276 62.0234 5.73698 62.5703 5.96094C63.1224 6.17969 63.5521 6.48698 63.8594 6.88281C64.1667 7.27344 64.3203 7.71875 64.3203 8.21875C64.3203 8.72396 64.1667 9.16927 63.8594 9.55469C63.5521 9.9349 63.125 10.2318 62.5781 10.4453C62.0365 10.6589 61.4193 10.7656 60.7266 10.7656C60.0234 10.7656 59.3984 10.6589 58.8516 10.4453C58.3047 10.2318 57.8776 9.9349 57.5703 9.55469C57.263 9.16927 57.1094 8.72396 57.1094 8.21875C57.1094 7.71875 57.263 7.27083 57.5703 6.875C57.8776 6.47396 58.3047 6.16667 58.8516 5.95312C59.3984 5.73438 60.0234 5.6276 60.7266 5.63281ZM60.7266 7.26562C60.4297 7.26562 60.1667 7.30208 59.9375 7.375C59.7135 7.44271 59.5417 7.54948 59.4219 7.69531C59.3021 7.84115 59.2422 8.01562 59.2422 8.21875C59.2422 8.41667 59.3021 8.58854 59.4219 8.73438C59.5417 8.875 59.7135 8.98177 59.9375 9.05469C60.1667 9.1224 60.4297 9.15625 60.7266 9.15625C61.013 9.15625 61.2656 9.1224 61.4844 9.05469C61.7031 8.98177 61.8724 8.875 61.9922 8.73438C62.1172 8.58854 62.1797 8.41667 62.1797 8.21875C62.1797 8.01562 62.1172 7.84115 61.9922 7.69531C61.8672 7.54948 61.6953 7.44271 61.4766 7.375C61.263 7.30208 61.013 7.26562 60.7266 7.26562ZM83.8359 9.82031H79.9766V8.02344H83.8359V9.82031ZM83.8359 14.2266H79.9766V12.4297H83.8359V14.2266ZM77.5312 6.13281C78.2552 6.13281 78.901 6.34375 79.4688 6.76562C80.0365 7.1875 80.4792 7.78646 80.7969 8.5625C81.1198 9.33854 81.2812 10.2422 81.2812 11.2734C81.2812 12.3151 81.1198 13.224 80.7969 14C80.4792 14.776 80.0365 15.375 79.4688 15.7969C78.901 16.2188 78.2552 16.4297 77.5312 16.4297C76.8021 16.4297 76.1536 16.2214 75.5859 15.8047C75.0182 15.3828 74.5703 14.7839 74.2422 14.0078C73.9193 13.2266 73.7578 12.3151 73.7578 11.2734C73.7578 10.2422 73.9193 9.33854 74.2422 8.5625C74.5703 7.78646 75.0182 7.1875 75.5859 6.76562C76.1536 6.34375 76.8021 6.13281 77.5312 6.13281ZM77.5312 8.17188C77.2083 8.16146 76.9245 8.27604 76.6797 8.51562C76.4349 8.75521 76.2474 9.10677 76.1172 9.57031C75.987 10.0339 75.9219 10.6016 75.9219 11.2734C75.9219 11.9505 75.987 12.5234 76.1172 12.9922C76.2474 13.4557 76.4349 13.8047 76.6797 14.0391C76.9245 14.2682 77.2083 14.3828 77.5312 14.3828C77.8594 14.3828 78.1458 14.2682 78.3906 14.0391C78.6354 13.8047 78.8203 13.4557 78.9453 12.9922C79.0755 12.5234 79.1406 11.9505 79.1406 11.2734C79.1406 10.5964 79.0729 10.026 78.9375 9.5625C78.8073 9.09375 78.6224 8.74219 78.3828 8.50781C78.1432 8.27344 77.8594 8.16146 77.5312 8.17188ZM85.7109 19.5312H83.4766V5.14844H85.7109V19.5312ZM99.4844 19.4922H97.2031V5.14844H99.4844V19.4922ZM95.1719 6.64062C95.1719 8.21354 94.974 9.63021 94.5781 10.8906C94.1875 12.1458 93.5052 13.2995 92.5312 14.3516C91.5573 15.4036 90.2292 16.3255 88.5469 17.1172L87.3828 15.3281C88.7578 14.6771 89.849 13.9583 90.6562 13.1719C91.4688 12.3802 92.0521 11.4922 92.4062 10.5078C92.7604 9.51823 92.9375 8.36198 92.9375 7.03906V6.64062H95.1719ZM93.9922 8.39844H88.1719V6.64062H93.9922V8.39844ZM109.656 14.2188C109.656 15.0052 109.542 15.7318 109.312 16.3984C109.089 17.0599 108.734 17.6406 108.25 18.1406C107.771 18.6406 107.159 19.0208 106.414 19.2812L105.32 17.6562C105.93 17.4427 106.43 17.1589 106.82 16.8047C107.211 16.4505 107.495 16.0547 107.672 15.6172C107.854 15.1797 107.945 14.7135 107.945 14.2188V13.8281H109.656V14.2188ZM110.133 14.2188C110.133 14.7031 110.216 15.1719 110.383 15.625C110.549 16.0781 110.815 16.4896 111.18 16.8594C111.544 17.2292 112.013 17.5312 112.586 17.7656L111.703 19.4141C110.948 19.138 110.336 18.7344 109.867 18.2031C109.398 17.6719 109.062 17.0703 108.859 16.3984C108.656 15.7214 108.555 14.9948 108.555 14.2188V13.8281H110.133V14.2188ZM114.812 14.2188C114.812 14.9531 114.706 15.6641 114.492 16.3516C114.284 17.0339 113.945 17.6432 113.477 18.1797C113.013 18.7214 112.422 19.1328 111.703 19.4141L110.781 17.7656C111.344 17.5104 111.807 17.1901 112.172 16.8047C112.536 16.4193 112.802 16.0052 112.969 15.5625C113.141 15.1198 113.227 14.6719 113.227 14.2188V13.8281H114.812V14.2188ZM115.445 14.2188C115.445 14.7448 115.531 15.2318 115.703 15.6797C115.88 16.1224 116.164 16.5156 116.555 16.8594C116.945 17.1979 117.448 17.4635 118.062 17.6562L116.977 19.2812C116.227 19.0312 115.612 18.6615 115.133 18.1719C114.654 17.6823 114.302 17.1042 114.078 16.4375C113.854 15.7656 113.742 15.026 113.742 14.2188V13.8281H115.445V14.2188ZM116.844 13.2422H114.586V5.17969H116.844V13.2422ZM108.953 5.85938C109.698 5.85938 110.372 6.01042 110.977 6.3125C111.581 6.60938 112.055 7.02344 112.398 7.55469C112.747 8.08073 112.922 8.67708 112.922 9.34375C112.922 10 112.747 10.5911 112.398 11.1172C112.055 11.6432 111.581 12.0573 110.977 12.3594C110.372 12.6562 109.698 12.8047 108.953 12.8047C108.208 12.8047 107.534 12.6562 106.93 12.3594C106.326 12.0573 105.849 11.6432 105.5 11.1172C105.156 10.5911 104.984 10 104.984 9.34375C104.984 8.67188 105.156 8.07292 105.5 7.54688C105.849 7.02083 106.326 6.60938 106.93 6.3125C107.534 6.01042 108.208 5.85938 108.953 5.85938ZM108.953 7.74219C108.604 7.74219 108.294 7.80469 108.023 7.92969C107.758 8.05469 107.549 8.23698 107.398 8.47656C107.253 8.71615 107.18 9.00521 107.18 9.34375C107.18 9.66667 107.253 9.94792 107.398 10.1875C107.549 10.4271 107.758 10.612 108.023 10.7422C108.294 10.8672 108.604 10.9323 108.953 10.9375C109.297 10.9323 109.599 10.8672 109.859 10.7422C110.12 10.612 110.323 10.4271 110.469 10.1875C110.62 9.94792 110.695 9.66667 110.695 9.34375C110.695 9.00521 110.622 8.71615 110.477 8.47656C110.331 8.23698 110.125 8.05469 109.859 7.92969C109.599 7.80469 109.297 7.74219 108.953 7.74219ZM122.609 6.13281C123.333 6.13281 123.979 6.34375 124.547 6.76562C125.115 7.1875 125.557 7.78646 125.875 8.5625C126.198 9.33854 126.359 10.2422 126.359 11.2734C126.359 12.3151 126.198 13.224 125.875 14C125.557 14.776 125.115 15.375 124.547 15.7969C123.979 16.2188 123.333 16.4297 122.609 16.4297C121.88 16.4297 121.232 16.2214 120.664 15.8047C120.096 15.3828 119.648 14.7839 119.32 14.0078C118.997 13.2266 118.836 12.3151 118.836 11.2734C118.836 10.2422 118.997 9.33854 119.32 8.5625C119.648 7.78646 120.096 7.1875 120.664 6.76562C121.232 6.34375 121.88 6.13281 122.609 6.13281ZM122.609 8.17188C122.286 8.16146 122.003 8.27604 121.758 8.51562C121.513 8.75521 121.326 9.10677 121.195 9.57031C121.065 10.0339 121 10.6016 121 11.2734C121 11.9505 121.065 12.5234 121.195 12.9922C121.326 13.4557 121.513 13.8047 121.758 14.0391C122.003 14.2682 122.286 14.3828 122.609 14.3828C122.938 14.3828 123.224 14.2682 123.469 14.0391C123.714 13.8047 123.898 13.4557 124.023 12.9922C124.154 12.5234 124.219 11.9505 124.219 11.2734C124.219 10.5964 124.151 10.026 124.016 9.5625C123.885 9.09375 123.701 8.74219 123.461 8.50781C123.221 8.27344 122.938 8.16146 122.609 8.17188ZM130.789 19.5312H128.555V5.14844H130.789V19.5312ZM129.516 12.0312H125.703V10.2422H129.516V12.0312ZM137.508 16.3594H135.281V12.4141H137.508V16.3594ZM142.758 16.3594H140.484V12.4141H142.758V16.3594ZM145.562 17.875H132.461V16.0391H145.562V17.875ZM138.992 5.78906C140.029 5.78906 140.958 5.95312 141.781 6.28125C142.609 6.60417 143.258 7.0625 143.727 7.65625C144.201 8.24479 144.438 8.92188 144.438 9.6875C144.438 10.4583 144.203 11.138 143.734 11.7266C143.266 12.3151 142.62 12.7708 141.797 13.0938C140.974 13.4115 140.039 13.5729 138.992 13.5781C137.951 13.5729 137.018 13.4115 136.195 13.0938C135.372 12.7708 134.727 12.3151 134.258 11.7266C133.794 11.138 133.562 10.4583 133.562 9.6875C133.562 8.92188 133.794 8.24479 134.258 7.65625C134.727 7.0625 135.372 6.60417 136.195 6.28125C137.023 5.95312 137.956 5.78906 138.992 5.78906ZM138.992 7.5625C138.336 7.55729 137.768 7.63802 137.289 7.80469C136.81 7.96615 136.44 8.20573 136.18 8.52344C135.919 8.84115 135.789 9.22917 135.789 9.6875C135.789 10.1354 135.919 10.5208 136.18 10.8438C136.44 11.1667 136.812 11.4141 137.297 11.5859C137.781 11.7578 138.346 11.8438 138.992 11.8438C139.633 11.8438 140.193 11.7578 140.672 11.5859C141.156 11.4141 141.531 11.1667 141.797 10.8438C142.062 10.5208 142.195 10.1354 142.195 9.6875C142.195 9.22917 142.065 8.84375 141.805 8.53125C141.544 8.21354 141.172 7.97135 140.688 7.80469C140.203 7.63802 139.638 7.55729 138.992 7.5625Z" fill="url(#paint0_linear_108_8494)"/>
<path d="M4 15.0234C4 16.1041 4.16602 17.0677 4.49805 17.9141C4.83008 18.7604 5.29557 19.4782 5.89453 20.0674C6.49349 20.6566 7.2015 21.1058 8.01855 21.415C8.83561 21.7243 9.72917 21.8789 10.6992 21.8789C12.2487 21.8789 13.528 21.5534 14.5371 20.9023C15.5462 20.2513 16.3698 19.2748 17.0078 17.9727C17.1966 17.6081 17.3756 17.2272 17.5449 16.8301C17.7142 16.433 17.8769 16.0179 18.0332 15.585C18.1895 15.152 18.3425 14.7011 18.4922 14.2324C18.6419 13.7637 18.7949 13.2786 18.9512 12.7773C19.0358 12.5039 19.1253 12.2158 19.2197 11.9131C19.3141 11.6104 19.3955 11.3288 19.4639 11.0684C19.5322 10.808 19.5664 10.5996 19.5664 10.4434C19.5664 10.1829 19.4801 9.97135 19.3076 9.80859C19.1351 9.64583 18.9088 9.56445 18.6289 9.56445C18.3229 9.56445 18.0641 9.66862 17.8525 9.87695C17.641 10.0853 17.4213 10.4206 17.1934 10.8828L15.8359 13.7344C15.7708 13.8907 15.6992 14.0013 15.6211 14.0664C15.543 14.1315 15.4648 14.1641 15.3867 14.1641C15.2826 14.1641 15.1996 14.1299 15.1377 14.0615C15.0758 13.9932 15.0449 13.8744 15.0449 13.7051V3.46094C15.0449 3.17448 14.9424 2.92871 14.7373 2.72363C14.5322 2.51856 14.2865 2.41602 14 2.41602C13.7135 2.41602 13.4678 2.51856 13.2627 2.72363C13.0576 2.92871 12.9551 3.17448 12.9551 3.46094V10.7852C12.8184 10.7331 12.6784 10.6875 12.5352 10.6484C12.3919 10.6094 12.2422 10.5768 12.0859 10.5508V2.05469C12.0859 1.76172 11.9834 1.5127 11.7783 1.30762C11.5732 1.10254 11.3275 1 11.041 1C10.748 1 10.499 1.10254 10.294 1.30762C10.0889 1.5127 9.98633 1.76172 9.98633 2.05469V10.4434C9.83659 10.4564 9.68359 10.4727 9.52734 10.4922C9.37109 10.5117 9.2181 10.5345 9.06836 10.5605V2.88477C9.06836 2.59831 8.96582 2.35254 8.76074 2.14746C8.55566 1.94238 8.30989 1.83984 8.02344 1.83984C7.73698 1.83984 7.49121 1.94238 7.28613 2.14746C7.08106 2.35254 6.97852 2.59831 6.97852 2.88477V11.2246C6.81576 11.3027 6.66114 11.3841 6.51465 11.4688C6.36816 11.5534 6.22982 11.638 6.09961 11.7227V5.92188C6.09961 5.63542 5.99707 5.38965 5.79199 5.18457C5.58692 4.97949 5.34115 4.87695 5.05469 4.87695C4.76172 4.87695 4.5127 4.97949 4.30762 5.18457C4.10254 5.38965 4 5.63542 4 5.92188V15.0234Z" fill="url(#paint1_linear_108_8494)"/>
<defs>
<linearGradient id="paint0_linear_108_8494" x1="28" y1="11.0035" x2="143.867" y2="11.0035" gradientUnits="userSpaceOnUse">
<stop stop-color="#3C78F4"/>
<stop offset="1" stop-color="#7C53EC"/>
</linearGradient>
<linearGradient id="paint1_linear_108_8494" x1="4" y1="10.2835" x2="19.2851" y2="10.2835" gradientUnits="userSpaceOnUse">
<stop stop-color="#3C78F4"/>
<stop offset="1" stop-color="#7C53EC"/>
</linearGradient>
</defs>
</svg>
