<svg width="114" height="18" viewBox="0 0 114 18" fill="none" xmlns="http://www.w3.org/2000/svg">
<path d="M38.3047 5.89844H34.0859V4.10156H38.3047V5.89844ZM38.3047 9.375H34.0859V7.58594H38.3047V9.375ZM39.7344 12.6172H37.5V2.17969H39.7344V12.6172ZM40.0625 16.2734H30.125V14.4688H40.0625V16.2734ZM32.375 15.4219H30.125V11.5781H32.375V15.4219ZM31.6094 2.98438C32.3125 2.98438 32.9505 3.14844 33.5234 3.47656C34.1016 3.79948 34.5625 4.2474 34.9062 4.82031C35.2552 5.39323 35.4297 6.03646 35.4297 6.75C35.4297 7.44792 35.2552 8.08333 34.9062 8.65625C34.5625 9.22396 34.099 9.67188 33.5156 10C32.9375 10.3281 32.3021 10.4922 31.6094 10.4922C30.8906 10.4922 30.237 10.3281 29.6484 10C29.0651 9.67188 28.6042 9.22396 28.2656 8.65625C27.9323 8.08333 27.7656 7.44792 27.7656 6.75C27.7656 6.03646 27.9323 5.39323 28.2656 4.82031C28.6042 4.24219 29.0651 3.79167 29.6484 3.46875C30.237 3.14583 30.8906 2.98438 31.6094 2.98438ZM31.6094 4.98438C31.276 4.97396 30.9792 5.03906 30.7188 5.17969C30.4583 5.3151 30.2552 5.51823 30.1094 5.78906C29.9635 6.0599 29.8906 6.38021 29.8906 6.75C29.8906 7.11458 29.9635 7.42708 30.1094 7.6875C30.2552 7.94792 30.4583 8.14583 30.7188 8.28125C30.9792 8.41667 31.276 8.48958 31.6094 8.5C31.9219 8.48958 32.2057 8.41667 32.4609 8.28125C32.7214 8.14583 32.9219 7.94792 33.0625 7.6875C33.2083 7.42188 33.2812 7.10938 33.2812 6.75C33.2812 6.38021 33.2083 6.0599 33.0625 5.78906C32.9219 5.51823 32.7214 5.3151 32.4609 5.17969C32.2057 5.03906 31.9219 4.97396 31.6094 4.98438ZM51.9688 4.74219H42.875V2.97656H51.9688V4.74219ZM54.5 10.8516H41.4297V9.04688H54.5V10.8516ZM49.0156 16.5078H46.7578V10.3203H49.0156V16.5078ZM53.0312 4.26562C53.0312 5 53.0208 5.61979 53 6.125C52.9792 6.63021 52.9245 7.22396 52.8359 7.90625C52.7526 8.58854 52.625 9.32552 52.4531 10.1172L50.2344 9.875C50.4062 9.125 50.5339 8.42448 50.6172 7.77344C50.7005 7.11719 50.75 6.53646 50.7656 6.03125C50.7812 5.52604 50.7891 4.9375 50.7891 4.26562V2.97656H53.0312V4.26562ZM61.1797 12.6875H58.9219V9.53906H61.1797V12.6875ZM67.4922 12.9844H65.2422V2.17969H67.4922V12.9844ZM67.7969 16.2734H56.9453V14.4688H67.7969V16.2734ZM59.2031 14.9375H56.9453V11.9531H59.2031V14.9375ZM55.2031 8.4375C57.1667 8.41146 58.8542 8.375 60.2656 8.32812C61.6823 8.27604 63.0495 8.16667 64.3672 8L64.4844 9.60938C63.099 9.84375 61.6484 10.0026 60.1328 10.0859C58.6224 10.1693 57.0651 10.2083 55.4609 10.2031L55.2031 8.4375ZM65.7344 11.9609H62.5703V10.4453H65.7344V11.9609ZM59.8516 2.63281C60.5339 2.6276 61.1484 2.73698 61.6953 2.96094C62.2474 3.17969 62.6771 3.48698 62.9844 3.88281C63.2917 4.27344 63.4453 4.71875 63.4453 5.21875C63.4453 5.72396 63.2917 6.16927 62.9844 6.55469C62.6771 6.9349 62.25 7.23177 61.7031 7.44531C61.1615 7.65885 60.5443 7.76562 59.8516 7.76562C59.1484 7.76562 58.5234 7.65885 57.9766 7.44531C57.4297 7.23177 57.0026 6.9349 56.6953 6.55469C56.388 6.16927 56.2344 5.72396 56.2344 5.21875C56.2344 4.71875 56.388 4.27083 56.6953 3.875C57.0026 3.47396 57.4297 3.16667 57.9766 2.95312C58.5234 2.73438 59.1484 2.6276 59.8516 2.63281ZM59.8516 4.26562C59.5547 4.26562 59.2917 4.30208 59.0625 4.375C58.8385 4.44271 58.6667 4.54948 58.5469 4.69531C58.4271 4.84115 58.3672 5.01562 58.3672 5.21875C58.3672 5.41667 58.4271 5.58854 58.5469 5.73438C58.6667 5.875 58.8385 5.98177 59.0625 6.05469C59.2917 6.1224 59.5547 6.15625 59.8516 6.15625C60.138 6.15625 60.3906 6.1224 60.6094 6.05469C60.8281 5.98177 60.9974 5.875 61.1172 5.73438C61.2422 5.58854 61.3047 5.41667 61.3047 5.21875C61.3047 5.01562 61.2422 4.84115 61.1172 4.69531C60.9922 4.54948 60.8203 4.44271 60.6016 4.375C60.388 4.30208 60.138 4.26562 59.8516 4.26562ZM77.625 5.05469C77.625 5.88802 77.4792 6.66146 77.1875 7.375C76.901 8.08333 76.4557 8.70312 75.8516 9.23438C75.2474 9.76562 74.4896 10.151 73.5781 10.3906L72.5156 8.63281C73.2812 8.4401 73.9115 8.15885 74.4062 7.78906C74.9062 7.41927 75.2682 7 75.4922 6.53125C75.7214 6.0625 75.8359 5.57031 75.8359 5.05469V4.53125H77.625V5.05469ZM78.0781 5.05469C78.0781 5.52865 78.1901 5.98438 78.4141 6.42188C78.638 6.85938 78.9974 7.2526 79.4922 7.60156C79.987 7.95052 80.612 8.22135 81.3672 8.41406L80.3828 10.1328C79.4505 9.91406 78.6745 9.55469 78.0547 9.05469C77.4349 8.55469 76.9792 7.96354 76.6875 7.28125C76.3958 6.59375 76.25 5.85156 76.25 5.05469V4.53125H78.0781V5.05469ZM80.8516 5.21875H73.0625V3.46094H80.8516V5.21875ZM78.0938 4.28906H75.8359V2.10156H78.0938V4.28906ZM84.0938 10.2734H81.8359V2.14844H84.0938V10.2734ZM85.9531 7.11719H83.4609V5.27344H85.9531V7.11719ZM80.0781 11.9219C80.0781 12.6823 79.8776 13.375 79.4766 14C79.0755 14.6198 78.474 15.1432 77.6719 15.5703C76.875 15.9974 75.8828 16.2839 74.6953 16.4297L73.8906 14.7344C74.8854 14.6198 75.7031 14.4167 76.3438 14.125C76.9844 13.8333 77.4505 13.4974 77.7422 13.1172C78.0391 12.737 78.1875 12.3385 78.1875 11.9219V11.5781H80.0781V11.9219ZM80.6016 11.9219C80.6016 12.3177 80.75 12.7083 81.0469 13.0938C81.3438 13.4792 81.8125 13.8229 82.4531 14.125C83.099 14.4219 83.9141 14.6328 84.8984 14.7578L84.1094 16.4688C82.9219 16.3177 81.9193 16.026 81.1016 15.5938C80.2891 15.1615 79.6823 14.6302 79.2812 14C78.8802 13.3646 78.6797 12.6719 78.6797 11.9219V11.5781H80.6016V11.9219ZM84.25 12.5938H74.5156V10.8359H84.25V12.5938ZM90.3672 3.13281C91.1068 3.13281 91.763 3.34375 92.3359 3.76562C92.9141 4.1875 93.3698 4.78646 93.7031 5.5625C94.0365 6.33854 94.2031 7.24219 94.2031 8.27344C94.2031 9.3151 94.0365 10.224 93.7031 11C93.3698 11.776 92.9141 12.375 92.3359 12.7969C91.7578 13.2188 91.1016 13.4297 90.3672 13.4297C89.6276 13.4297 88.9661 13.2188 88.3828 12.7969C87.8047 12.375 87.3516 11.776 87.0234 11C86.6953 10.224 86.5312 9.3151 86.5312 8.27344C86.5312 7.24219 86.6953 6.33854 87.0234 5.5625C87.3516 4.78646 87.8047 4.1875 88.3828 3.76562C88.9661 3.34375 89.6276 3.13281 90.3672 3.13281ZM90.3672 5.17188C90.0391 5.16146 89.7474 5.27604 89.4922 5.51562C89.2422 5.75521 89.0495 6.10677 88.9141 6.57031C88.7786 7.03385 88.7109 7.60156 88.7109 8.27344C88.7109 8.95052 88.7786 9.52344 88.9141 9.99219C89.0495 10.4557 89.2422 10.8047 89.4922 11.0391C89.7474 11.2682 90.0391 11.3828 90.3672 11.3828C90.7109 11.3828 91.0078 11.2682 91.2578 11.0391C91.513 10.8047 91.7057 10.4557 91.8359 9.99219C91.9714 9.52344 92.0391 8.95052 92.0391 8.27344C92.0391 7.59635 91.9714 7.02604 91.8359 6.5625C91.7057 6.09375 91.513 5.74219 91.2578 5.50781C91.0078 5.27344 90.7109 5.16146 90.3672 5.17188ZM97.875 16.4922H95.6172V2.14844H97.875V16.4922ZM99.9062 9.32812H97.3828V7.46094H99.9062V9.32812ZM105.383 13.3594H103.156V9.41406H105.383V13.3594ZM110.633 13.3594H108.359V9.41406H110.633V13.3594ZM113.438 14.875H100.336V13.0391H113.438V14.875ZM106.867 2.78906C107.904 2.78906 108.833 2.95312 109.656 3.28125C110.484 3.60417 111.133 4.0625 111.602 4.65625C112.076 5.24479 112.312 5.92188 112.312 6.6875C112.312 7.45833 112.078 8.13802 111.609 8.72656C111.141 9.3151 110.495 9.77083 109.672 10.0938C108.849 10.4115 107.914 10.5729 106.867 10.5781C105.826 10.5729 104.893 10.4115 104.07 10.0938C103.247 9.77083 102.602 9.3151 102.133 8.72656C101.669 8.13802 101.438 7.45833 101.438 6.6875C101.438 5.92188 101.669 5.24479 102.133 4.65625C102.602 4.0625 103.247 3.60417 104.07 3.28125C104.898 2.95312 105.831 2.78906 106.867 2.78906ZM106.867 4.5625C106.211 4.55729 105.643 4.63802 105.164 4.80469C104.685 4.96615 104.315 5.20573 104.055 5.52344C103.794 5.84115 103.664 6.22917 103.664 6.6875C103.664 7.13542 103.794 7.52083 104.055 7.84375C104.315 8.16667 104.688 8.41406 105.172 8.58594C105.656 8.75781 106.221 8.84375 106.867 8.84375C107.508 8.84375 108.068 8.75781 108.547 8.58594C109.031 8.41406 109.406 8.16667 109.672 7.84375C109.938 7.52083 110.07 7.13542 110.07 6.6875C110.07 6.22917 109.94 5.84375 109.68 5.53125C109.419 5.21354 109.047 4.97135 108.562 4.80469C108.078 4.63802 107.513 4.55729 106.867 4.5625Z" fill="white"/>
<path d="M5.35156 17.8027C6.09375 17.8027 6.78873 17.5879 7.43652 17.1582C8.08431 16.7285 8.65234 16.1198 9.14062 15.332C9.62891 14.5443 10.0098 13.6051 10.2832 12.5146C10.5567 11.4241 10.6934 10.2181 10.6934 8.89648C10.6934 7.56836 10.5567 6.36068 10.2832 5.27344C10.0098 4.1862 9.62891 3.2487 9.14062 2.46094C8.65234 1.67318 8.08431 1.06608 7.43652 0.639648C6.78873 0.213216 6.09375 0 5.35156 0C4.60287 0 3.90625 0.213216 3.26172 0.639648C2.61719 1.06608 2.05078 1.67318 1.5625 2.46094C1.07422 3.2487 0.691732 4.1862 0.415039 5.27344C0.138346 6.36068 0 7.56836 0 8.89648C0 10.2181 0.138346 11.4241 0.415039 12.5146C0.691732 13.6051 1.07422 14.5443 1.5625 15.332C2.05078 16.1198 2.61719 16.7285 3.26172 17.1582C3.90625 17.5879 4.60287 17.8027 5.35156 17.8027ZM5.35156 16.4258C4.81771 16.4258 4.31315 16.2451 3.83789 15.8838C3.36263 15.5225 2.94271 15.0081 2.57812 14.3408C2.21354 13.6735 1.92708 12.8792 1.71875 11.958C1.51042 11.0368 1.40625 10.0163 1.40625 8.89648C1.40625 7.7832 1.50879 6.76758 1.71387 5.84961C1.91894 4.93164 2.2054 4.14063 2.57324 3.47656C2.94108 2.8125 3.36263 2.29818 3.83789 1.93359C4.31315 1.56901 4.81771 1.38346 5.35156 1.37695C5.89193 1.37695 6.40137 1.55762 6.87988 1.91895C7.3584 2.28028 7.77995 2.79297 8.14453 3.45703C8.50912 4.12109 8.79558 4.91373 9.00391 5.83496C9.21224 6.75619 9.31641 7.77669 9.31641 8.89648C9.31641 10.0098 9.21224 11.0254 9.00391 11.9434C8.79558 12.8613 8.50912 13.654 8.14453 14.3213C7.77995 14.9886 7.3584 15.5046 6.87988 15.8691C6.40137 16.2337 5.89193 16.4193 5.35156 16.4258ZM3.24219 12.3438C4.05599 12.3438 4.71191 12.0834 5.20996 11.5625C5.70801 11.0416 5.95703 10.3515 5.95703 9.49219C5.95703 8.64584 5.70801 7.96224 5.20996 7.44141C4.71191 6.92058 4.05599 6.66016 3.24219 6.66016C2.42188 6.66016 1.7627 6.92058 1.26465 7.44141C0.766602 7.96224 0.517578 8.64584 0.517578 9.49219C0.517578 10.3515 0.766602 11.0416 1.26465 11.5625C1.7627 12.0834 2.42188 12.3438 3.24219 12.3438ZM2.4707 9.16016C2.29492 9.13411 2.15983 9.03157 2.06543 8.85254C1.97103 8.6735 1.94336 8.47656 1.98242 8.26172C2.02149 8.05339 2.11589 7.88249 2.26562 7.74902C2.41536 7.61556 2.57161 7.56511 2.73438 7.59766C2.91016 7.63021 3.04362 7.73437 3.13477 7.91016C3.22591 8.08594 3.25195 8.278 3.21289 8.48633C3.17383 8.70117 3.08268 8.8737 2.93945 9.00391C2.79622 9.13412 2.63997 9.1862 2.4707 9.16016ZM17.4805 17.8027C18.2292 17.8027 18.9258 17.5879 19.5703 17.1582C20.2148 16.7285 20.7812 16.1198 21.2695 15.332C21.7578 14.5443 22.1403 13.6051 22.417 12.5146C22.6937 11.4241 22.832 10.2181 22.832 8.89648C22.832 7.56836 22.6937 6.36068 22.417 5.27344C22.1403 4.1862 21.7578 3.2487 21.2695 2.46094C20.7812 1.67318 20.2148 1.06608 19.5703 0.639648C18.9258 0.213216 18.2292 0 17.4805 0C16.7383 0 16.0433 0.213216 15.3955 0.639648C14.7477 1.06608 14.1797 1.67318 13.6914 2.46094C13.2031 3.2487 12.8223 4.1862 12.5488 5.27344C12.2754 6.36068 12.1387 7.56836 12.1387 8.89648C12.1387 10.2181 12.2754 11.4241 12.5488 12.5146C12.8223 13.6051 13.2031 14.5443 13.6914 15.332C14.1797 16.1198 14.7477 16.7285 15.3955 17.1582C16.0433 17.5879 16.7383 17.8027 17.4805 17.8027ZM17.4805 16.416C16.9466 16.416 16.4404 16.2353 15.9619 15.874C15.4834 15.5127 15.0602 14.9984 14.6924 14.3311C14.3245 13.6638 14.0364 12.8695 13.8281 11.9482C13.6198 11.027 13.5156 10.0098 13.5156 8.89648C13.5156 7.7832 13.6198 6.76758 13.8281 5.84961C14.0364 4.93164 14.3245 4.14063 14.6924 3.47656C15.0602 2.8125 15.4817 2.29981 15.957 1.93848C16.4323 1.57715 16.9401 1.39323 17.4805 1.38672C18.0143 1.38672 18.5205 1.56738 18.999 1.92871C19.4775 2.29004 19.8991 2.80436 20.2637 3.47168C20.6282 4.139 20.9147 4.93164 21.123 5.84961C21.3313 6.76758 21.4355 7.7832 21.4355 8.89648C21.4355 10.0098 21.3313 11.0254 21.123 11.9434C20.9147 12.8613 20.6282 13.654 20.2637 14.3213C19.8991 14.9886 19.4775 15.503 18.999 15.8643C18.5205 16.2256 18.0143 16.4095 17.4805 16.416ZM15.3613 12.3438C16.1751 12.3438 16.8343 12.0834 17.3389 11.5625C17.8434 11.0416 18.0957 10.3515 18.0957 9.49219C18.0957 8.64584 17.8434 7.96224 17.3389 7.44141C16.8343 6.92058 16.1751 6.66016 15.3613 6.66016C14.541 6.66016 13.8819 6.92058 13.3838 7.44141C12.8857 7.96224 12.6367 8.64584 12.6367 9.49219C12.6367 10.3515 12.8857 11.0416 13.3838 11.5625C13.8819 12.0834 14.541 12.3438 15.3613 12.3438ZM14.5898 9.16016C14.4205 9.12761 14.2887 9.02344 14.1943 8.84766C14.0999 8.67187 14.0722 8.47656 14.1113 8.26172C14.1569 8.05339 14.2513 7.88249 14.3945 7.74902C14.5378 7.61556 14.694 7.56511 14.8633 7.59766C15.0391 7.6237 15.1726 7.72624 15.2637 7.90527C15.3548 8.08431 15.3776 8.278 15.332 8.48633C15.2929 8.70117 15.2018 8.8737 15.0586 9.00391C14.9154 9.13412 14.7591 9.1862 14.5898 9.16016Z" fill="white"/>
</svg>
