<svg width="105" height="79" viewBox="0 0 105 79" fill="none" xmlns="http://www.w3.org/2000/svg">
<g clip-path="url(#clip0_134_10553)">
<path d="M0 73.0274C0 73.8732 0.17189 74.6476 0.515671 75.3506C0.859453 76.0535 1.32958 76.6165 1.92605 77.0394C2.52253 77.4622 3.19687 77.6737 3.94907 77.6737H5.5622C4.74535 77.119 4.14594 76.4325 3.76396 75.6142C3.38198 74.7958 3.19981 73.9062 3.21743 72.9451C3.22918 72.2311 3.32174 71.5858 3.4951 71.0091C3.66847 70.4325 3.88443 69.9231 4.14299 69.481C4.40157 69.0389 4.66601 68.6613 4.93634 68.3483H3.61411C2.93242 68.3483 2.31831 68.557 1.77179 68.9744C1.22527 69.3918 0.793342 69.9533 0.476004 70.659C0.158668 71.3648 0 72.1542 0 73.0274ZM4.44271 72.9698C4.43095 73.7497 4.58374 74.4719 4.90108 75.1364C5.21841 75.8009 5.67826 76.3817 6.28061 76.8787C6.88296 77.3757 7.61165 77.7643 8.4667 78.0444C9.32176 78.3245 10.2782 78.47 11.336 78.481L12.5877 78.4892C13.1812 78.4947 13.6924 78.4796 14.1214 78.4439C14.5504 78.4082 14.8883 78.3574 15.1352 78.2915C15.4937 78.2092 15.8183 78.0595 16.1092 77.8425C16.4001 77.6256 16.5456 77.314 16.5456 76.9075C16.5456 76.7428 16.525 76.6 16.4838 76.4792C16.4427 76.3584 16.3928 76.2513 16.334 76.1579C16.2576 76.0426 16.2753 75.9629 16.3869 75.9189C16.6689 75.8146 16.9128 75.6416 17.1185 75.4C17.3242 75.1583 17.427 74.8673 17.427 74.5268C17.427 74.1424 17.3212 73.8211 17.1097 73.5629C17.0039 73.4311 17.0274 73.3213 17.1802 73.2334C17.3859 73.1236 17.5534 72.956 17.6826 72.7308C17.8119 72.5057 17.8766 72.2531 17.8766 71.973C17.8766 71.7808 17.8443 71.5885 17.7797 71.3963C17.715 71.2041 17.6209 71.0558 17.4976 70.9515C17.3801 70.8471 17.3918 70.7373 17.5328 70.6219C17.6797 70.5121 17.7943 70.3624 17.8766 70.173C17.9589 69.9835 18 69.7679 18 69.5263C18 69.2517 17.9309 69.0018 17.7928 68.7767C17.6547 68.5515 17.4652 68.3716 17.2243 68.2371C16.9833 68.1025 16.713 68.0352 16.4133 68.0352H13.1959C12.7845 68.0352 12.4554 67.9432 12.2086 67.7593C11.9618 67.5753 11.8384 67.3268 11.8384 67.0137C11.8384 66.7227 11.9148 66.3849 12.0675 66.0005C12.2203 65.616 12.3981 65.2069 12.6009 64.773C12.8037 64.3391 12.9814 63.9066 13.1342 63.4755C13.287 63.0444 13.3634 62.6394 13.3634 62.2604C13.3634 61.865 13.2429 61.5561 13.002 61.3336C12.761 61.1112 12.4613 61 12.1028 61C11.7737 61 11.5137 61.0975 11.3227 61.2924C11.1317 61.4874 10.9481 61.7442 10.7718 62.0627C10.096 63.2984 9.34229 64.4243 8.51078 65.4403C7.67924 66.4563 6.91675 67.3927 6.22331 68.2494C5.82958 68.7327 5.50343 69.2078 5.24486 69.6746C4.98629 70.1414 4.79089 70.6385 4.65867 71.1657C4.52645 71.6929 4.45446 72.2943 4.44271 72.9698Z" fill="#98A2B3"/>
</g>
<path d="M28.1484 74H26.6133V67.0039H26.5664L24.5801 68.2754V66.875L26.6836 65.5156H28.1484V74ZM33.3398 74.1172C32.6602 74.1172 32.0762 73.9473 31.5879 73.6074C31.1035 73.2676 30.7305 72.7715 30.4688 72.1191C30.2109 71.4629 30.082 70.6758 30.082 69.7578C30.082 68.8398 30.2109 68.0547 30.4688 67.4023C30.7305 66.75 31.1055 66.2539 31.5938 65.9141C32.082 65.5703 32.6641 65.3984 33.3398 65.3984C34.0156 65.3984 34.5977 65.5703 35.0859 65.9141C35.5781 66.2539 35.9531 66.752 36.2109 67.4082C36.4688 68.0605 36.5977 68.8438 36.5977 69.7578C36.5977 70.6797 36.4688 71.4668 36.2109 72.1191C35.957 72.7715 35.584 73.2676 35.0918 73.6074C34.6035 73.9473 34.0195 74.1172 33.3398 74.1172ZM33.3398 72.834C33.6953 72.834 34.002 72.7188 34.2598 72.4883C34.5176 72.2539 34.7148 71.9082 34.8516 71.4512C34.9922 70.9902 35.0605 70.4258 35.0566 69.7578C35.0566 69.0938 34.9863 68.5312 34.8457 68.0703C34.709 67.6055 34.5117 67.2559 34.2539 67.0215C34 66.7832 33.6953 66.6641 33.3398 66.6641C32.9844 66.6641 32.6777 66.7832 32.4199 67.0215C32.166 67.2559 31.9688 67.6055 31.8281 68.0703C31.6875 68.5312 31.6172 69.0938 31.6172 69.7578C31.6172 70.4258 31.6855 70.9902 31.8223 71.4512C31.9629 71.9082 32.1621 72.2539 32.4199 72.4883C32.6777 72.7188 32.9844 72.834 33.3398 72.834Z" fill="#98A2B3"/>
<g clip-path="url(#clip1_134_10553)">
<path d="M52.8512 79C53.0145 79 53.1629 78.9579 53.2963 78.8737C53.4297 78.7895 53.5944 78.6578 53.7904 78.4785L56.7387 75.7895L62.2596 75.7977C63.0708 75.7977 63.7541 75.6523 64.3095 75.3617C64.8648 75.0711 65.2854 74.6488 65.5712 74.0947C65.8571 73.5406 66 72.8642 66 72.0656V65.8239C66 65.0254 65.8571 64.349 65.5712 63.795C65.2854 63.2409 64.8648 62.8185 64.3095 62.5279C63.7541 62.2372 63.0708 62.0919 62.2596 62.0919H51.7405C50.9292 62.0919 50.2459 62.2372 49.6906 62.5279C49.1352 62.8185 48.7146 63.2409 48.4288 63.795C48.1429 64.349 48 65.0254 48 65.8239V72.0656C48 72.8642 48.1429 73.5406 48.4288 74.0947C48.7146 74.6488 49.1352 75.0697 49.6906 75.3576C50.2459 75.6455 50.9292 75.7895 51.7405 75.7895H52.1243V78.1607C52.1243 78.416 52.1869 78.6197 52.3122 78.7718C52.4374 78.924 52.6171 79 52.8512 79Z" fill="#98A2B3"/>
</g>
<path d="M76.1484 74H74.6133V67.0039H74.5664L72.5801 68.2754V66.875L74.6836 65.5156H76.1484V74ZM81.3398 74.1172C80.6602 74.1172 80.0762 73.9473 79.5879 73.6074C79.1035 73.2676 78.7305 72.7715 78.4688 72.1191C78.2109 71.4629 78.082 70.6758 78.082 69.7578C78.082 68.8398 78.2109 68.0547 78.4688 67.4023C78.7305 66.75 79.1055 66.2539 79.5938 65.9141C80.082 65.5703 80.6641 65.3984 81.3398 65.3984C82.0156 65.3984 82.5977 65.5703 83.0859 65.9141C83.5781 66.2539 83.9531 66.752 84.2109 67.4082C84.4688 68.0605 84.5977 68.8438 84.5977 69.7578C84.5977 70.6797 84.4688 71.4668 84.2109 72.1191C83.957 72.7715 83.584 73.2676 83.0918 73.6074C82.6035 73.9473 82.0195 74.1172 81.3398 74.1172ZM81.3398 72.834C81.6953 72.834 82.002 72.7188 82.2598 72.4883C82.5176 72.2539 82.7148 71.9082 82.8516 71.4512C82.9922 70.9902 83.0605 70.4258 83.0566 69.7578C83.0566 69.0938 82.9863 68.5312 82.8457 68.0703C82.709 67.6055 82.5117 67.2559 82.2539 67.0215C82 66.7832 81.6953 66.6641 81.3398 66.6641C80.9844 66.6641 80.6777 66.7832 80.4199 67.0215C80.166 67.2559 79.9688 67.6055 79.8281 68.0703C79.6875 68.5312 79.6172 69.0938 79.6172 69.7578C79.6172 70.4258 79.6855 70.9902 79.8223 71.4512C79.9629 71.9082 80.1621 72.2539 80.4199 72.4883C80.6777 72.7188 80.9844 72.834 81.3398 72.834Z" fill="#98A2B3"/>
<path d="M10.1582 42.4609H8.64062V35.8574H10.1582V42.4609ZM11.8877 39.8633H9.72754V38.6055H11.8877V39.8633ZM1.93457 40.8887C3.33822 40.8887 4.42969 40.8636 5.20898 40.8135C5.99284 40.7633 6.76074 40.6585 7.5127 40.499L7.68359 41.7227C6.9043 41.8822 6.10449 41.9915 5.28418 42.0508C4.46387 42.1055 3.34733 42.1328 1.93457 42.1328H0.922852V40.8887H1.93457ZM6.41895 37.8535H2.44043V41.7227H0.922852V36.6299H6.41895V37.8535ZM3.65723 44.3613H8.64062V43.0762H10.1582V48.0391H2.14648V43.0762H3.65723V44.3613ZM8.64062 46.8154V45.5576H3.65723V46.8154H8.64062ZM21.8818 39.2412H18.5596V37.9971H21.8818V39.2412ZM21.9297 41.873H18.5596V40.6494H21.9297V41.873ZM22.8594 44.9902H21.3418V35.8711H22.8594V44.9902ZM23.126 47.9844H14.7109V46.7402H23.126V47.9844ZM16.2559 47.417H14.7109V44.0879H16.2559V47.417ZM14.5947 38.6738H17.3564V36.6846H18.8535V42.9873H13.0703V36.6846H14.5947V38.6738ZM17.3564 41.7773V39.8428H14.5947V41.7773H17.3564Z" fill="#667085"/>
<path d="M12.9964 13.0114L14.167 14.4991L15.5926 16.1478L17.8867 19H14.9601L13.3551 17.0575L12.4299 15.7404L10.3718 13.0114H12.9964ZM18 11.0499C18 12.5155 17.7168 13.7789 17.1503 14.8402C16.5839 15.9015 15.8097 16.71 14.8279 17.266C13.846 17.8219 12.7352 18.0998 11.4953 18.0998C10.2617 18.0998 9.15081 17.8219 8.16267 17.266C7.18083 16.71 6.40668 15.8983 5.84023 14.8307C5.28008 13.7631 5 12.5028 5 11.0499C5 9.5717 5.28008 8.30196 5.84023 7.24068C6.40668 6.17941 7.18083 5.37397 8.16267 4.82438C9.15081 4.27479 10.2617 4 11.4953 4C12.7352 4 13.846 4.27479 14.8279 4.82438C15.8097 5.37397 16.5839 6.17941 17.1503 7.24068C17.7168 8.30196 18 9.5717 18 11.0499ZM14.7146 11.0499C14.7146 10.1466 14.5856 9.38219 14.3275 8.75679C14.0758 8.12508 13.7076 7.64814 13.2229 7.32596C12.7446 6.99747 12.1687 6.83323 11.4953 6.83323C10.8281 6.83323 10.2522 6.99747 9.76761 7.32596C9.28928 7.64814 8.92108 8.12508 8.66304 8.75679C8.41128 9.38219 8.2854 10.1466 8.2854 11.0499C8.2854 11.9533 8.41128 12.7208 8.66304 13.3525C8.92108 13.9779 9.28928 14.4548 9.76761 14.7833C10.2522 15.1055 10.8281 15.2666 11.4953 15.2666C12.1687 15.2666 12.7446 15.1055 13.2229 14.7833C13.7076 14.4548 14.0758 13.9779 14.3275 13.3525C14.5856 12.7208 14.7146 11.9533 14.7146 11.0499Z" fill="#B692F6"/>
<path d="M36.4062 12.4844H34.1641V5.14844H36.4062V12.4844ZM36.4219 16.9766H28.9453V18.3438H26.75V15.3828H34.1719V14.7031H26.7188V13.0156H36.4219V16.9766ZM36.7656 19.4141H26.75V17.7031H36.7656V19.4141ZM29.6484 7.07031C29.6484 7.9349 29.4948 8.74479 29.1875 9.5C28.8802 10.2552 28.4115 10.9141 27.7812 11.4766C27.151 12.0339 26.362 12.4401 25.4141 12.6953L24.3984 10.9219C25.1849 10.7083 25.8307 10.401 26.3359 10C26.8464 9.59896 27.2188 9.14583 27.4531 8.64062C27.6927 8.13542 27.8125 7.61198 27.8125 7.07031V6.53125H29.6484V7.07031ZM30.0938 7.07031C30.0938 7.58073 30.2083 8.07031 30.4375 8.53906C30.6719 9.00781 31.0365 9.42969 31.5312 9.80469C32.0312 10.1745 32.6693 10.4609 33.4453 10.6641L32.3906 12.4062C31.4688 12.1562 30.7031 11.7682 30.0938 11.2422C29.4844 10.7109 29.0339 10.0885 28.7422 9.375C28.4505 8.65625 28.3047 7.88802 28.3047 7.07031V6.53125H30.0938V7.07031ZM32.8516 7.55469H24.9844V5.77344H32.8516V7.55469ZM51.2969 13.9453H38.1953V12.1641H51.2969V13.9453ZM46.0469 16.2734H43.8281V13.2891H46.0469V16.2734ZM49.6406 11.1406H39.8047V5.76562H49.6406V11.1406ZM42 9.39844H47.4297V7.5H42V9.39844ZM49.8594 19.2734H39.6797V17.4688H49.8594V19.2734ZM41.9297 18.0625H39.6797V15.0781H41.9297V18.0625Z" fill="#344054"/>
<defs>
<clipPath id="clip0_134_10553">
<rect width="18" height="18" fill="white" transform="translate(0 61)"/>
</clipPath>
<clipPath id="clip1_134_10553">
<rect width="18" height="18" fill="white" transform="translate(48 61)"/>
</clipPath>
</defs>
</svg>
