<svg width="60" height="24" viewBox="0 0 60 24" fill="none" xmlns="http://www.w3.org/2000/svg">
<path d="M58.9999 22.8028H57.2935V5.73804H58.9999V22.8028ZM58.9999 4.37286H57.2935V2.66638H58.9999V4.37286Z" fill="black"/>
<path d="M46.728 5.73804C47.8885 5.73804 48.9806 5.96557 50.0045 6.42063C51.0284 6.85293 51.9271 7.45589 52.7007 8.22949C53.4971 8.98034 54.1228 9.87908 54.5778 10.9257C55.0329 11.9724 55.2604 13.0873 55.2604 14.2704H53.5539C53.5539 13.3375 53.3719 12.4615 53.0079 11.6424C52.6438 10.8006 52.1546 10.0725 51.5403 9.45815C50.926 8.84382 50.1979 8.35463 49.356 7.99058C48.5369 7.62653 47.6609 7.44451 46.728 7.44451C45.7952 7.44451 44.9078 7.62653 44.066 7.99058C43.2468 8.35463 42.5301 8.84382 41.9158 9.45815C41.3015 10.0725 40.8123 10.8006 40.4482 11.6424C40.0842 12.4615 39.9022 13.3375 39.9022 14.2704V22.8028H38.1957V14.2704C38.1957 13.0873 38.4118 11.9724 38.8441 10.9257C39.2992 9.87908 39.9022 8.98034 40.653 8.22949C41.4266 7.45589 42.3253 6.85293 43.3492 6.42063C44.3959 5.96557 45.5221 5.73804 46.728 5.73804Z" fill="black"/>
<path d="M27.6303 5.73804C28.7907 5.73804 29.8828 5.96557 30.9067 6.42063C31.9306 6.85293 32.8293 7.45589 33.6029 8.22949C34.3993 8.98034 35.025 9.87908 35.4801 10.9257C35.9351 11.9724 36.1626 13.0873 36.1626 14.2704C36.1626 15.4763 35.9351 16.6026 35.4801 17.6492C35.025 18.6731 34.3993 19.5719 33.6029 20.3455C32.8293 21.0963 31.9306 21.6993 30.9067 22.1543C29.8828 22.5866 28.7907 22.8028 27.6303 22.8028C26.4244 22.8028 25.2981 22.5866 24.2515 22.1543C23.2276 21.6993 22.3288 21.0963 21.5552 20.3455C20.8044 19.5719 20.2014 18.6731 19.7464 17.6492C19.3141 16.6026 19.0979 15.4763 19.0979 14.2704C19.0979 13.0873 19.3141 11.9724 19.7464 10.9257C20.2014 9.87908 20.8044 8.98034 21.5552 8.22949C22.3288 7.45589 23.2276 6.85293 24.2515 6.42063C25.2981 5.96557 26.4244 5.73804 27.6303 5.73804ZM27.6303 21.0963C28.5631 21.0963 29.4391 20.9143 30.2582 20.5502C31.1001 20.1862 31.8282 19.697 32.4425 19.0827C33.0569 18.4683 33.546 17.7516 33.9101 16.9325C34.2741 16.0906 34.4562 15.2033 34.4562 14.2704C34.4562 13.3375 34.2741 12.4615 33.9101 11.6424C33.546 10.8006 33.0569 10.0725 32.4425 9.45815C31.8282 8.84382 31.1001 8.35463 30.2582 7.99058C29.4391 7.62653 28.5631 7.44451 27.6303 7.44451C26.6974 7.44451 25.81 7.62653 24.9682 7.99058C24.1491 8.35463 23.4323 8.84382 22.818 9.45815C22.2037 10.0725 21.7145 10.8006 21.3504 11.6424C20.9864 12.4615 20.8044 13.3375 20.8044 14.2704C20.8044 15.2033 20.9864 16.0906 21.3504 16.9325C21.7145 17.7516 22.2037 18.4683 22.818 19.0827C23.4323 19.697 24.1491 20.1862 24.9682 20.5502C25.81 20.9143 26.6974 21.0963 27.6303 21.0963Z" fill="black"/>
<path d="M0 14.2704C0 13.0872 0.216153 11.9723 0.64846 10.9257C1.10352 9.87906 1.70647 8.98032 2.45732 8.22947C3.23092 7.45587 4.12967 6.85292 5.15355 6.42061C6.20019 5.96555 7.32646 5.73802 8.53237 5.73802C9.89755 5.73802 11.1831 6.05656 12.389 6.69364C13.5949 7.30797 14.5847 8.12708 15.3583 9.15097V0H17.0647V14.2704C17.0647 15.4763 16.8372 16.6026 16.3822 17.6492C15.9498 18.6731 15.3469 19.5718 14.5733 20.3454C13.8224 21.0963 12.9237 21.6992 11.8771 22.1543C10.8304 22.5866 9.71553 22.8028 8.53237 22.8028C7.32646 22.8028 6.20019 22.5866 5.15355 22.1543C4.12967 21.6992 3.23092 21.0963 2.45732 20.3454C1.70647 19.5718 1.10352 18.6731 0.64846 17.6492C0.216153 16.6026 0 15.4763 0 14.2704ZM1.70647 14.2704C1.70647 15.2033 1.8885 16.0906 2.25255 16.9325C2.61659 17.7516 3.10578 18.4683 3.72011 19.0826C4.33444 19.697 5.05116 20.1862 5.87027 20.5502C6.71213 20.9143 7.5995 21.0963 8.53237 21.0963C9.46524 21.0963 10.3412 20.9143 11.1603 20.5502C12.0022 20.1862 12.7303 19.697 13.3446 19.0826C13.959 18.4683 14.4481 17.7516 14.8122 16.9325C15.1762 16.0906 15.3583 15.2033 15.3583 14.2704C15.3583 13.3375 15.1762 12.4615 14.8122 11.6424C14.4481 10.8006 13.959 10.0725 13.3446 9.45813C12.7303 8.8438 12.0022 8.35461 11.1603 7.99056C10.3412 7.62652 9.46524 7.44449 8.53237 7.44449C7.5995 7.44449 6.71213 7.62652 5.87027 7.99056C5.05116 8.35461 4.33444 8.8438 3.72011 9.45813C3.10578 10.0725 2.61659 10.8006 2.25255 11.6424C1.8885 12.4615 1.70647 13.3375 1.70647 14.2704Z" fill="black"/>
</svg>
