<svg width="96" height="96" viewBox="0 0 96 96" fill="none" xmlns="http://www.w3.org/2000/svg">
    <rect width="96" height="96" rx="48" fill="#AFB5D9"/>
    <path d="M64 66V62C64 59.8783 63.1571 57.8434 61.6568 56.3431C60.1566 54.8429 58.1217 54 56 54H40C37.8783 54 35.8434 54.8429 34.3431 56.3431C32.8429 57.8434 32 59.8783 32 62V66M56 38C56 42.4183 52.4183 46 48 46C43.5817 46 40 42.4183 40 38C40 33.5817 43.5817 30 48 30C52.4183 30 56 33.5817 56 38Z" stroke="#F8F9FC" stroke-width="4" stroke-linecap="round" stroke-linejoin="round"/>
    </svg>
    