<svg width="50" height="24" viewBox="0 0 50 24" fill="none" xmlns="http://www.w3.org/2000/svg">
<path d="M11.3923 8.23265L5.47389 13.9348C4.58278 14.7934 4.58278 16.1862 5.47389 17.0448V17.0448C6.365 17.9033 7.81063 17.9033 8.70174 17.0448L16.5038 9.52776C18.1382 7.95305 18.1382 5.40026 16.5038 3.82556V3.82556C14.8694 2.25086 12.2198 2.25086 10.5854 3.82556L2.7833 11.3426C0.405567 13.6334 0.405567 17.3462 2.7833 19.637V19.637C5.16103 21.9279 9.0146 21.9279 11.3923 19.637L16.1273 15.0751" stroke="#98A2B3" stroke-width="2" stroke-linecap="round" stroke-linejoin="round"/>
<path d="M44.7295 3H30.7295C29.6249 3 28.7295 3.89543 28.7295 5V19C28.7295 20.1046 29.6249 21 30.7295 21H44.7295C45.8341 21 46.7295 20.1046 46.7295 19V5C46.7295 3.89543 45.8341 3 44.7295 3Z" stroke="#98A2B3" stroke-width="2" stroke-linecap="round" stroke-linejoin="round"/>
<path d="M34.7295 11C35.8341 11 36.7295 10.1046 36.7295 9C36.7295 7.89543 35.8341 7 34.7295 7C33.6249 7 32.7295 7.89543 32.7295 9C32.7295 10.1046 33.6249 11 34.7295 11Z" stroke="#98A2B3" stroke-width="2" stroke-linecap="round" stroke-linejoin="round"/>
<path d="M46.7295 15.0002L43.6435 11.9142C43.2684 11.5392 42.7598 11.3286 42.2295 11.3286C41.6992 11.3286 41.1905 11.5392 40.8155 11.9142L31.7295 21.0002" stroke="#98A2B3" stroke-width="2" stroke-linecap="round" stroke-linejoin="round"/>
</svg>
