<svg width="40" height="22" viewBox="0 0 40 22" fill="none" xmlns="http://www.w3.org/2000/svg">
<rect x="1" y="0.5" width="38" height="21" rx="10.5" stroke="#EAECF0"/>
<path d="M13.9529 11.22H14.9489V13.92H13.9529V11.22ZM14.4569 5.796C16.7489 5.796 18.3929 6.912 18.3929 8.64C18.3929 10.368 16.7489 11.484 14.4569 11.484C12.1649 11.484 10.5089 10.368 10.5089 8.64C10.5089 6.912 12.1649 5.796 14.4569 5.796ZM14.4569 6.588C12.7289 6.588 11.4689 7.404 11.4689 8.64C11.4689 9.876 12.7289 10.692 14.4569 10.692C16.1729 10.692 17.4329 9.876 17.4329 8.64C17.4329 7.404 16.1729 6.588 14.4569 6.588ZM9.56094 13.728H19.3889V14.556H9.56094V13.728ZM21.92 7.668H29.276V8.484H21.92V7.668ZM20.588 9.528H30.428V10.344H20.588V9.528ZM21.92 5.244H22.892V8.04H21.92V5.244ZM21.812 11.316H29.18V13.86H22.82V15.264H21.836V13.116H28.184V12.084H21.812V11.316ZM21.836 15.012H29.54V15.792H21.836V15.012Z" fill="#475467"/>
</svg>
