<svg width="55" height="22" viewBox="0 0 55 22" fill="none" xmlns="http://www.w3.org/2000/svg">
<rect x="0.5" y="0.5" width="54" height="21" rx="10.5" stroke="#D1FADF"/>
<g clip-path="url(#clip0_95_5075)">
<path d="M6.00004 17.6667V14.3334M6.00004 7.66671V4.33337M4.33337 6.00004H7.66671M4.33337 16H7.66671M11.6667 5.00004L10.5106 8.00595C10.3226 8.49477 10.2286 8.73918 10.0824 8.94476C9.95283 9.12697 9.79364 9.28617 9.61143 9.41573C9.40585 9.56191 9.16143 9.65591 8.67261 9.84392L5.66671 11L8.67262 12.1562C9.16144 12.3442 9.40585 12.4382 9.61143 12.5844C9.79364 12.7139 9.95283 12.8731 10.0824 13.0553C10.2286 13.2609 10.3226 13.5053 10.5106 13.9941L11.6667 17L12.8228 13.9941C13.0108 13.5053 13.1048 13.2609 13.251 13.0553C13.3806 12.8731 13.5398 12.7139 13.722 12.5844C13.9276 12.4382 14.172 12.3442 14.6608 12.1562L17.6667 11L14.6608 9.84392C14.172 9.65591 13.9276 9.56191 13.722 9.41573C13.5398 9.28617 13.3806 9.12697 13.251 8.94476C13.1048 8.73918 13.0108 8.49477 12.8228 8.00595L11.6667 5.00004Z" stroke="#32D583" stroke-linecap="round" stroke-linejoin="round"/>
</g>
<path d="M29.2012 15H27.6777L23.9512 9.60938H23.8867V15H22.1289V6.51562H23.6758L27.373 11.9004H27.4492V6.51562H29.2012V15ZM33.4961 15.123C32.8555 15.123 32.2969 14.9902 31.8203 14.7246C31.3477 14.459 30.9824 14.0801 30.7246 13.5879C30.4707 13.0957 30.3438 12.5176 30.3438 11.8535C30.3438 11.1973 30.4707 10.6211 30.7246 10.125C30.9824 9.625 31.3438 9.23828 31.8086 8.96484C32.2734 8.69141 32.8125 8.55469 33.4258 8.55469C34 8.55469 34.5117 8.67578 34.9609 8.91797C35.4102 9.15625 35.7637 9.51758 36.0215 10.002C36.2793 10.4863 36.4082 11.0781 36.4082 11.7773V12.2637H31.0527V11.1797H34.7734C34.7734 10.9219 34.7168 10.6934 34.6035 10.4941C34.4902 10.291 34.334 10.1328 34.1348 10.0195C33.9355 9.90625 33.709 9.84961 33.4551 9.84961C33.1855 9.84961 32.9453 9.91211 32.7344 10.0371C32.5234 10.1582 32.3574 10.3262 32.2363 10.541C32.1191 10.7559 32.0586 10.9902 32.0547 11.2441V12.2637C32.0547 12.5801 32.1152 12.8574 32.2363 13.0957C32.3574 13.334 32.5273 13.5156 32.7461 13.6406C32.9688 13.7656 33.2266 13.8281 33.5195 13.8281C33.7148 13.8281 33.8926 13.8008 34.0527 13.7461C34.2129 13.6875 34.3477 13.6133 34.457 13.5234C34.5703 13.4297 34.6562 13.3203 34.7148 13.1953H36.3672C36.2852 13.582 36.1152 13.9219 35.8574 14.2148C35.6035 14.5039 35.2734 14.7285 34.8672 14.8887C34.4648 15.0449 34.0078 15.123 33.4961 15.123ZM36.9707 8.63672H38.7285L39.7246 12.9375H39.7832L40.8262 8.63672H42.5488L43.6094 12.9082H43.668L44.6465 8.63672H46.3984L44.6641 15H42.8301L41.7227 10.9629H41.6465L40.5391 15H38.7109L36.9707 8.63672Z" fill="#32D583"/>
<defs>
<clipPath id="clip0_95_5075">
<rect width="16" height="16" fill="white" transform="translate(3 3)"/>
</clipPath>
</defs>
</svg>
