<svg width="51" height="22" viewBox="0 0 51 22" fill="none" xmlns="http://www.w3.org/2000/svg">
<rect x="1" y="0.5" width="49" height="21" rx="10.5" stroke="#FFE4E8"/>
<mask id="mask0_95_5051" style="mask-type:alpha" maskUnits="userSpaceOnUse" x="3" y="3" width="17" height="16">
<rect x="3.5" y="3" width="16" height="16" fill="#D9D9D9"/>
</mask>
<g mask="url(#mask0_95_5051)">
<path d="M7.50008 12.3333C7.50008 12.9111 7.61675 13.4583 7.85008 13.975C8.08341 14.4917 8.41675 14.9444 8.85008 15.3333C8.83897 15.2778 8.83341 15.2278 8.83341 15.1833V15.0333C8.83341 14.6778 8.90008 14.3444 9.03341 14.0333C9.16675 13.7222 9.36119 13.4389 9.61675 13.1833L11.5001 11.3333L13.3834 13.1833C13.639 13.4389 13.8334 13.7222 13.9667 14.0333C14.1001 14.3444 14.1667 14.6778 14.1667 15.0333V15.1833C14.1667 15.2278 14.1612 15.2778 14.1501 15.3333C14.5834 14.9444 14.9167 14.4917 15.1501 13.975C15.3834 13.4583 15.5001 12.9111 15.5001 12.3333C15.5001 11.7778 15.3973 11.2528 15.1917 10.7583C14.9862 10.2639 14.689 9.82222 14.3001 9.43333C14.0779 9.57778 13.8445 9.68611 13.6001 9.75833C13.3556 9.83056 13.1056 9.86667 12.8501 9.86667C12.1612 9.86667 11.564 9.63889 11.0584 9.18333C10.5529 8.72778 10.2612 8.16667 10.1834 7.5C9.75008 7.86667 9.36675 8.24722 9.03341 8.64167C8.70008 9.03611 8.41953 9.43611 8.19175 9.84167C7.96397 10.2472 7.79175 10.6611 7.67508 11.0833C7.55841 11.5056 7.50008 11.9222 7.50008 12.3333ZM11.5001 13.2L10.5501 14.1333C10.4279 14.2556 10.3334 14.3944 10.2667 14.55C10.2001 14.7056 10.1667 14.8667 10.1667 15.0333C10.1667 15.3889 10.2973 15.6944 10.5584 15.95C10.8195 16.2056 11.1334 16.3333 11.5001 16.3333C11.8667 16.3333 12.1806 16.2056 12.4417 15.95C12.7029 15.6944 12.8334 15.3889 12.8334 15.0333C12.8334 14.8556 12.8001 14.6917 12.7334 14.5417C12.6667 14.3917 12.5723 14.2556 12.4501 14.1333L11.5001 13.2ZM11.5001 5V7.2C11.5001 7.57778 11.6306 7.89444 11.8917 8.15C12.1529 8.40556 12.4723 8.53333 12.8501 8.53333C13.0501 8.53333 13.2362 8.49167 13.4084 8.40833C13.5806 8.325 13.7334 8.2 13.8667 8.03333L14.1667 7.66667C14.989 8.13333 15.639 8.78333 16.1167 9.61667C16.5945 10.45 16.8334 11.3556 16.8334 12.3333C16.8334 13.8222 16.3167 15.0833 15.2834 16.1167C14.2501 17.15 12.989 17.6667 11.5001 17.6667C10.0112 17.6667 8.75008 17.15 7.71675 16.1167C6.68341 15.0833 6.16675 13.8222 6.16675 12.3333C6.16675 10.9 6.6473 9.53889 7.60841 8.25C8.56953 6.96111 9.86675 5.87778 11.5001 5Z" fill="#FD6F8E"/>
</g>
<path d="M22.6426 6.51562H24.4004V10.0312H28.0801V6.51562H29.8379V15H28.0801V11.4785H24.4004V15H22.6426V6.51562ZM34.1035 15.123C33.4707 15.123 32.918 14.9863 32.4453 14.7129C31.9727 14.4395 31.6094 14.0547 31.3555 13.5586C31.1016 13.0625 30.9746 12.4902 30.9746 11.8418C30.9746 11.1855 31.1016 10.6113 31.3555 10.1191C31.6094 9.62305 31.9727 9.23828 32.4453 8.96484C32.918 8.69141 33.4707 8.55469 34.1035 8.55469C34.7324 8.55469 35.2832 8.69141 35.7559 8.96484C36.2324 9.23828 36.5957 9.62305 36.8457 10.1191C37.0957 10.6113 37.2207 11.1855 37.2207 11.8418C37.2207 12.4902 37.0957 13.0625 36.8457 13.5586C36.5957 14.0547 36.2324 14.4395 35.7559 14.7129C35.2832 14.9863 34.7324 15.123 34.1035 15.123ZM34.1152 13.7812C34.4043 13.7812 34.6484 13.6973 34.8477 13.5293C35.0508 13.3613 35.2031 13.1309 35.3047 12.8379C35.4062 12.541 35.457 12.2051 35.457 11.8301C35.457 11.4512 35.4062 11.1152 35.3047 10.8223C35.2031 10.5293 35.0508 10.2988 34.8477 10.1309C34.6484 9.96289 34.4043 9.87891 34.1152 9.87891C33.8184 9.87891 33.5664 9.96289 33.3594 10.1309C33.1523 10.2988 32.9961 10.5293 32.8906 10.8223C32.7852 11.1113 32.7324 11.4473 32.7324 11.8301C32.7324 12.209 32.7852 12.5449 32.8906 12.8379C32.9961 13.1309 33.1523 13.3613 33.3594 13.5293C33.5664 13.6973 33.8184 13.7812 34.1152 13.7812ZM41.668 9.9375H37.8594V8.63672H41.668V9.9375ZM40.4727 7.11328V13.043C40.4727 13.207 40.4961 13.3359 40.543 13.4297C40.5938 13.5195 40.6621 13.584 40.748 13.623C40.8379 13.6582 40.9473 13.6777 41.0762 13.6816C41.2402 13.6855 41.4668 13.6758 41.7559 13.6523V15.0234C41.4941 15.0664 41.1914 15.0879 40.8477 15.0879C40.418 15.0879 40.0449 15.0234 39.7285 14.8945C39.4121 14.7617 39.166 14.5605 38.9902 14.291C38.8145 14.0215 38.7285 13.6855 38.7324 13.2832V7.11328H40.4727Z" fill="#FD6F8E"/>
</svg>
